<?xml version="1.0" encoding="UTF-8" standalone="no"?>
<svg width="120px" height="57px" viewBox="0 0 120 57" version="1.1" xmlns="http://www.w3.org/2000/svg" xmlns:xlink="http://www.w3.org/1999/xlink">
    <!-- Generator: Sketch 50.2 (55047) - http://www.bohemiancoding.com/sketch -->
    <title>Artboard</title>
    <desc>Created with Sketch.</desc>
    <defs></defs>
    <g id="Page-2" stroke="none" stroke-width="1" fill="none" fill-rule="evenodd">
        <g id="Artboard" transform="translate(-240.000000, -140.000000)">
            <g id="Group" transform="translate(240.000000, 140.000000)">
                <path d="M60,120 C26.862915,120 0,93.137085 0,60 C0,26.862915 26.862915,0 60,0 C93.137085,0 120,26.862915 120,60 C120,93.137085 93.137085,120 60,120 Z M60.3157895,97.8947368 C81.070069,97.8947368 97.8947368,81.070069 97.8947368,60.3157895 C97.8947368,39.5615099 81.070069,22.7368421 60.3157895,22.7368421 C39.5615099,22.7368421 22.7368421,39.5615099 22.7368421,60.3157895 C22.7368421,81.070069 39.5615099,97.8947368 60.3157895,97.8947368 Z" id="Combined-Shape" fill="#E24093"></path>
                <path d="M59.6,112 C30.6602791,112 7.2,88.5397209 7.2,59.6 C7.2,30.6602791 30.6602791,7.2 59.6,7.2 C88.5397209,7.2 112,30.6602791 112,59.6 C112,88.5397209 88.5397209,112 59.6,112 Z M59.9156627,97.4795181 C80.6616071,97.4795181 97.4795181,80.6616071 97.4795181,59.9156627 C97.4795181,39.1697182 80.6616071,22.3518072 59.9156627,22.3518072 C39.1697182,22.3518072 22.3518072,39.1697182 22.3518072,59.9156627 C22.3518072,80.6616071 39.1697182,97.4795181 59.9156627,97.4795181 Z" id="Combined-Shape" fill="#FBB03B"></path>
                <path d="M59.6,104.4 C35.0785571,104.4 15.2,84.5214429 15.2,60 C15.2,35.4785571 35.0785571,15.6 59.6,15.6 C84.1214429,15.6 104,35.4785571 104,60 C104,84.5214429 84.1214429,104.4 59.6,104.4 Z M59.9126761,97.5211268 C80.4623359,97.5211268 97.1211268,80.8623359 97.1211268,60.3126761 C97.1211268,39.7630162 80.4623359,23.1042254 59.9126761,23.1042254 C39.3630162,23.1042254 22.7042254,39.7630162 22.7042254,60.3126761 C22.7042254,80.8623359 39.3630162,97.5211268 59.9126761,97.5211268 Z" id="Combined-Shape" fill="#36A194"></path>
            </g>
            <polygon id="Triangle" fill="#FFFFFF" points="400 182 400 200 300 200"></polygon>
            <polygon id="Triangle" fill="#FFFFFF" transform="translate(250.000000, 195.357422) scale(-1, 1) translate(-250.000000, -195.357422) " points="300 190.238281 300 200.476562 200 200.476562"></polygon>
        </g>
    </g>
</svg>