<svg height="511pt" viewBox="0 -1 511.29323 511" width="511pt" xmlns="http://www.w3.org/2000/svg"><path d="m477.253906 70.375-19.484375-51.003906c-3.011719-7.898438-9.230469-14.152344-17.113281-17.207032-7.882812-3.054687-16.691406-2.625-24.238281 1.179688-12.339844 6.636719-18.585938 20.8125-15.15625 34.398438-6.867188.820312-13.265625 3.914062-18.175781 8.789062l-122.621094 122.539062c-10.109375 10.121094-18.328125 21.972657-24.261719 34.988282l-3.558594 7.839844h-51.335937c19.890625-18 27.40625-45.980469 19.207031-71.523438-1.472656-3.441406-5.015625-5.515625-8.734375-5.125s-6.753906 3.160156-7.476562 6.828125c-2.917969 6.707031-8.429688 11.941406-15.277344 14.507813-12.421875 6.265624-27.84375 8.464843-35.054688 4.984374-17.636718-8.472656-34.484375-7.585937-46.183594 2.464844-10.160156 8.757813-14.179687 22.699219-10.238281 35.523438 1.378907 4.484375 3.585938 8.667968 6.503907 12.339844h-54.1875c-16.496094 0-29.867188 13.371093-29.867188 29.867187s13.371094 29.867187 29.867188 29.867187h72.019531c3.671875 25.101563 25.589843 43.457032 50.945312 42.667969 25.355469.789063 47.273438-17.566406 50.945313-42.667969h14.019531c5.617187 9.863282 12.886719 18.6875 21.484375 26.09375 8.171875 8.039063 19.054688 12.726563 30.507812 13.140626 2.433594 0 4.859376-.246094 7.246094-.722657.144532 0 .28125-.050781 49.578125-9.898437l-16.621093 61.652344c-2.089844 7.804687-2.316407 15.988281-.660157 23.894531l17.160157 81.066406c-.101563.691406-.117188 1.394531-.039063 2.089844.183594 1.015625.554687 1.984375 1.089844 2.867187l3.414062 15.929688c3.9375 15.71875 19.621094 25.492187 35.464844 22.105468 15.847656-3.386718 26.160156-18.71875 23.328125-34.671874l-16.921875-96.8125c-.792969-4.53125-.660156-9.175782.394531-13.652344l23.390625-99.753906 100.4375-61.738282c7.941407-4.933594 16.742188-15.582031 13.582031-38.300781-1.542968-11.117187-18.046874-54.585937-33.378906-94.546875zm-53.191406-51.773438c3.234375-1.648437 7.015625-1.84375 10.40625-.542968 3.386719 1.300781 6.0625 3.980468 7.363281 7.371094l7.609375 19.925781-23.894531 9.128906-3.667969-9.515625-.066406-.152344-3.464844-9.085937c-2.679687-6.335938-.230468-13.675781 5.714844-17.128907zm-35.300781 181.085938c-8.585938-3.222656-17.691407-4.855469-26.863281-4.820312-17.101563-.671876-33.757813 5.523437-46.265626 17.203124-.222656-.058593-.441406-.105468-.667968-.136718h-11.945313c7.285157-10.375 15.648438-19.949219 24.949219-28.5625l93.664062-91.117188 26.785157 70.203125zm-137.035157 11.476562c5.089844-11.160156 12.136719-21.320312 20.800782-30l122.652344-122.566406c3.199218-3.171875 7.757812-4.566406 12.183593-3.730468l7.554688 19.800781c-.484375.691406-1.027344 1.34375-1.621094 1.945312l-95.773437 93.121094-1.535157 1.519531c-13.050781 11.589844-23.988281 25.351563-32.332031 40.679688h-32.273438zm-157.867187-16.542968c-1.902344-6.355469.074219-13.234375 5.058594-17.605469 6.410156-5.503906 16.214843-5.523437 27.675781 0 14.148438 6.773437 35.367188 2.304687 50.125-5.121094 3.515625-1.746093 6.871094-3.804687 10.023438-6.152343-1.347657 12.800781-8.53125 30.277343-32.367188 46.226562h-28.851562c-.066407 0-.117188 0-.1875 0h-3.855469c-7.371094-.332031-23.261719-2.722656-27.664063-17.347656zm-77.5625 47.179687c.230469-7.273437 6.292969-12.996093 13.570313-12.800781h91.707031c.445312 0 .9375.070312 1.367187.070312.636719 0 1.191406 0 1.789063-.070312h107.785156c2.191406 4.742188 2.425781 10.15625.65625 15.070312-2.917969 5.105469-7.707031 8.878907-13.351563 10.53125h-189.953124c-7.277344.195313-13.339844-5.527343-13.570313-12.800781zm136.535156 55.464844c-15.902343.660156-30.019531-10.09375-33.605469-25.597656h67.210938c-3.585938 15.503906-17.703125 26.257812-33.605469 25.597656zm121.121094-3.933594c-8.632813 1.207031-17.3125-1.875-23.253906-8.257812-6.265625-5.402344-11.742188-11.65625-16.273438-18.578125 6.160157-3.515625 11.113281-8.804688 14.21875-15.179688 3.089844-7.015625 3.691407-14.878906 1.707031-22.28125h41.957032c9.15625 23.421875 2.371094 50.558594-.851563 60.84375zm96.136719 195.535157c-3.105469 3.722656-8.023438 5.40625-12.757813 4.378906-4.738281-1.03125-8.507812-4.609375-9.785156-9.285156l-2.066406-9.765626 25.898437-4.726562 1.527344 8.738281c.695312 3.796875-.335938 7.703125-2.816406 10.660157zm117.992187-300.160157-103.425781 63.570313c-1.9375 1.191406-3.324219 3.105468-3.847656 5.316406l-24.210938 103.253906c-1.578125 6.71875-1.78125 13.683594-.585937 20.480469l12.441406 71.347656-26.503906 4.839844-15.890625-75.230469c-1.105469-5.277344-.957032-10.742187.433594-15.949218l20.199218-74.957032c.136719-.5.230469-1.011718.273438-1.527344l2.132812-26.027343c.386719-4.710938-3.125-8.84375-7.835937-9.226563-4.714844-.386718-8.84375 3.125-9.230469 7.835938l-1.605469 19.625-20.257812 4.046875c4.949219-18.707031 4.992187-38.371094.128906-57.097657h4.667969c.6875-.046874 1.371094-.1875 2.023437-.410156.828125.265625 1.691407.402344 2.558594.410156 2.6875 0 5.214844-1.261718 6.828125-3.414062 9.292969-9.46875 22.234375-14.445312 35.480469-13.652344 8.296875-.117187 16.519531 1.582032 24.089843 4.984375.109376.058594.230469 0 .351563.09375.8125.34375 1.675781.5625 2.558594.640625.164062 0 .324219.050782.488281.058594h.210938c.894531-.011719 1.78125-.167969 2.628906-.460938.238281-.089843.472656-.191406.699218-.304687.40625-.144531.800782-.320313 1.179688-.523437l69.382812-43.203126c.222657-.191406.4375-.394531.640626-.605468.453124-.347656.871093-.742188 1.246093-1.179688.34375-.402344.648438-.839844.914063-1.304687.265625-.46875.488281-.960938.65625-1.476563.34375-1.015625.488281-2.085937.425781-3.15625-.03125-.578125-.128906-1.152344-.289063-1.707031-.03125-.285156-.074218-.570313-.136718-.851563l-34.714844-90.941406c-.050781-.121094-.085938-.238281-.136719-.359375l-.460937-1.195312 23.9375-9.128907 5.792968 15.171876c9.277344 24.140624 31 80.675781 32.425782 90.777343 1.503906 10.949219-.433594 18.160157-5.664063 21.4375zm0 0"/></svg>